<?xml version="1.0" standalone="no"?>
<!DOCTYPE svg PUBLIC "-//W3C//DTD SVG 20010904//EN"
 "http://www.w3.org/TR/2001/REC-SVG-20010904/DTD/svg10.dtd">
<svg version="1.0" xmlns="http://www.w3.org/2000/svg"
 width="4500.000000pt" height="4500.000000pt" viewBox="0 0 4500.000000 4500.000000"
 preserveAspectRatio="xMidYMid meet">
<metadata>
Created by potrace 1.14, written by Peter Selinger 2001-2017
</metadata>
<g transform="translate(0.000000,4500.000000) scale(0.100000,-0.100000)"
fill="#000000" stroke="none">
<path d="M22711 39589 c-374 -264 -716 -565 -997 -879 -27 -30 -51 -57 -54
-60 -3 -3 -49 -57 -101 -120 -126 -151 -255 -325 -374 -501 -53 -79 -103 -152
-111 -162 -8 -9 -14 -19 -14 -21 0 -2 -31 -55 -68 -118 -143 -237 -316 -577
-422 -828 -17 -41 -35 -84 -40 -95 -5 -11 -25 -63 -45 -115 -20 -52 -42 -111
-50 -130 -65 -163 -211 -650 -239 -800 -2 -14 -14 -68 -25 -120 -11 -52 -22
-107 -24 -122 -2 -21 -20 -38 -82 -79 -163 -106 -193 -125 -305 -204 -499
-351 -945 -756 -1371 -1245 -41 -47 -76 -87 -79 -90 -3 -3 -70 -86 -148 -185
-78 -99 -145 -184 -150 -190 -103 -130 -312 -418 -527 -725 -370 -530 -644
-911 -675 -940 -3 -3 -21 -25 -40 -50 -226 -295 -540 -605 -830 -822 -363
-272 -923 -520 -1432 -634 -10 -2 -27 -6 -38 -9 -34 -9 -64 -15 -95 -21 -16
-3 -48 -9 -70 -14 -63 -14 -193 -38 -280 -50 -44 -7 -89 -14 -99 -16 -11 -2
-42 -6 -70 -9 -28 -3 -58 -8 -66 -10 -8 -2 -44 -6 -80 -10 -36 -3 -92 -8 -125
-12 -85 -9 -108 -11 -127 -12 -16 -1 -17 -16 -13 -183 2 -101 6 -194 9 -208 2
-14 9 -56 15 -95 109 -721 516 -1278 1149 -1572 143 -66 148 -68 267 -108 182
-60 398 -108 611 -136 271 -34 684 -40 1011 -14 149 12 201 18 343 36 139 17
173 22 245 35 24 5 70 12 105 18 14 2 41 7 60 10 73 13 97 16 150 21 30 3 62
8 70 10 8 2 38 7 65 10 28 4 57 8 65 10 8 2 40 7 70 10 30 3 73 8 95 12 22 3
51 7 65 8 14 2 45 5 70 8 41 5 106 12 215 22 22 2 81 7 130 10 50 4 104 8 120
10 53 6 406 18 522 18 124 -1 401 -12 448 -18 17 -2 55 -7 85 -10 67 -7 92
-10 150 -19 25 -4 59 -10 75 -12 75 -12 274 -65 330 -89 151 -65 222 -108 287
-177 175 -186 125 -428 -145 -700 -206 -208 -506 -411 -912 -618 -202 -103
-538 -255 -695 -315 -52 -20 -108 -43 -125 -50 -16 -7 -57 -23 -90 -35 -33
-13 -69 -27 -80 -31 -26 -11 -203 -75 -420 -150 -93 -33 -179 -63 -190 -68
-11 -5 -103 -39 -205 -76 -102 -36 -192 -69 -200 -72 -8 -4 -17 -7 -20 -8 -3
-1 -14 -5 -25 -10 -11 -4 -110 -43 -220 -86 -252 -97 -445 -174 -513 -205 -29
-13 -55 -24 -58 -24 -6 0 -149 -61 -244 -103 -25 -11 -94 -41 -155 -67 -60
-27 -132 -58 -160 -70 -27 -12 -70 -31 -95 -42 -25 -12 -92 -42 -148 -69 -57
-27 -106 -49 -109 -49 -6 0 -621 -305 -708 -352 -33 -17 -107 -57 -165 -89
-58 -31 -130 -70 -160 -86 -346 -187 -872 -521 -1142 -725 -112 -84 -198 -157
-173 -146 58 26 98 43 205 87 69 29 134 56 145 61 28 13 167 69 400 162 110
44 214 86 230 93 81 35 545 219 700 277 44 16 89 34 100 39 11 5 92 36 180 69
88 33 169 65 180 70 11 5 148 57 305 115 157 58 301 112 320 120 32 13 136 51
620 227 529 192 1591 550 1955 658 33 9 148 44 255 77 107 33 238 72 290 87
642 183 1098 352 1489 552 91 46 173 89 181 94 8 5 58 35 110 67 188 113 377
258 487 374 32 34 63 67 69 73 78 82 193 275 228 382 97 298 20 591 -219 830
-110 110 -200 173 -352 247 -135 65 -336 119 -450 121 -29 0 -49 4 -45 8 18
17 326 93 482 117 184 29 289 41 445 48 227 11 489 6 619 -12 17 -2 54 -6 82
-9 122 -12 395 -65 524 -102 107 -31 185 -56 205 -64 11 -5 38 -14 60 -21 73
-22 268 -109 401 -179 226 -117 424 -250 634 -424 84 -69 378 -359 433 -426
16 -19 69 -86 119 -147 50 -62 92 -113 93 -113 4 0 -21 111 -36 165 -59 206
-166 458 -254 601 -227 365 -465 616 -790 830 -309 204 -733 369 -1097 429
-18 3 -46 8 -61 11 -16 3 -38 7 -50 9 -25 3 -177 24 -222 30 -183 25 -730 26
-985 0 -19 -2 -66 -6 -105 -10 -38 -3 -79 -8 -90 -10 -11 -3 -45 -7 -75 -10
-30 -3 -66 -7 -79 -10 -14 -2 -59 -9 -101 -15 -42 -6 -86 -12 -97 -14 -11 -3
-38 -7 -59 -11 -42 -6 -75 -12 -114 -20 -59 -12 -227 -46 -250 -50 -22 -5 -64
-13 -150 -30 -14 -3 -81 -16 -150 -30 -69 -13 -136 -26 -150 -29 -23 -4 -210
-39 -270 -51 -13 -2 -42 -7 -65 -10 -22 -3 -47 -8 -55 -10 -8 -2 -35 -7 -60
-10 -25 -3 -61 -10 -80 -15 -20 -5 -53 -12 -75 -15 -22 -2 -76 -11 -120 -20
-44 -8 -98 -17 -120 -20 -22 -4 -47 -8 -55 -10 -8 -3 -33 -7 -55 -10 -22 -3
-49 -7 -60 -9 -27 -5 -149 -24 -265 -41 -25 -4 -56 -8 -70 -10 -14 -3 -45 -7
-69 -10 -23 -3 -55 -7 -70 -10 -14 -2 -80 -11 -146 -20 -66 -9 -136 -18 -155
-20 -19 -3 -56 -7 -83 -10 -26 -3 -60 -7 -75 -9 -15 -2 -58 -8 -97 -11 -122
-12 -139 -14 -180 -19 -22 -3 -76 -8 -119 -12 -44 -3 -88 -7 -98 -9 -10 -2
-67 -7 -126 -10 -59 -4 -129 -8 -157 -10 -303 -24 -1036 -24 -1150 -1 -11 2
-51 7 -90 10 -38 4 -81 8 -95 10 -14 3 -45 7 -70 10 -25 3 -56 8 -70 11 -13 2
-42 7 -64 11 -22 3 -43 7 -46 9 -3 2 -23 6 -44 9 -54 9 -182 42 -279 73 -340
107 -606 283 -788 523 -50 66 -173 300 -185 354 -6 26 -5 28 12 21 49 -20 463
-119 549 -131 11 -1 65 -10 120 -19 149 -24 171 -27 325 -40 236 -21 531 -21
760 0 73 6 291 33 330 41 14 2 41 7 60 10 19 2 67 12 105 20 39 9 79 18 90 20
259 52 702 205 1010 349 417 194 786 404 1315 748 116 76 709 476 990 668
1286 881 2069 1317 2798 1558 155 51 295 94 349 106 10 2 43 11 73 20 77 21
388 82 490 95 47 6 94 13 106 15 161 27 728 26 874 -1 14 -2 44 -6 67 -9 142
-14 519 -112 658 -170 131 -55 175 -75 284 -132 175 -91 403 -248 460 -317 13
-15 11 -16 -15 -5 -53 20 -178 51 -304 75 -14 3 -32 7 -40 9 -21 6 -175 32
-235 40 -27 3 -57 8 -65 10 -8 2 -49 6 -90 10 -41 3 -93 8 -115 10 -209 21
-628 21 -795 1 -14 -2 -59 -7 -100 -11 -41 -4 -84 -9 -95 -11 -10 -2 -37 -6
-60 -9 -36 -5 -145 -24 -170 -29 -5 -2 -37 -8 -70 -15 -160 -32 -378 -93 -530
-148 -151 -55 -180 -66 -185 -70 -3 -3 36 -2 85 2 95 7 467 7 595 1 153 -8
341 -22 414 -31 17 -3 60 -7 96 -11 36 -3 72 -8 81 -9 9 -2 40 -6 70 -10 47
-5 88 -11 189 -29 14 -2 63 -11 110 -20 47 -8 96 -17 110 -20 14 -2 61 -12
105 -21 44 -9 89 -19 100 -21 33 -6 56 -12 130 -29 39 -9 77 -18 85 -20 114
-27 456 -131 655 -199 136 -46 443 -164 510 -196 74 -35 198 -90 201 -90 7 0
311 -152 410 -206 275 -147 684 -412 914 -591 91 -71 279 -227 375 -312 182
-162 501 -486 586 -596 13 -16 34 -41 47 -55 30 -32 240 -301 281 -360 37 -52
220 -326 238 -355 148 -244 175 -292 308 -559 52 -104 95 -181 96 -170 0 10 2
28 4 39 24 127 24 813 0 1025 -2 19 -6 73 -10 120 -3 47 -8 99 -10 115 -4 30
-23 188 -31 255 -2 19 -9 58 -14 85 -5 28 -12 68 -15 90 -38 272 -165 797
-271 1120 -113 344 -273 728 -434 1040 -103 202 -106 207 -224 403 -50 84 -96
161 -101 170 -19 32 -149 227 -154 232 -3 3 -21 28 -40 55 -39 56 -211 287
-220 295 -4 3 -22 25 -41 50 -120 156 -318 376 -521 579 -190 190 -233 230
-499 458 -51 44 -165 133 -170 133 -7 0 5 9 -225 -173 -99 -78 -211 -167 -249
-197 l-69 -54 64 89 c79 111 178 261 234 357 287 489 528 1044 661 1523 19 67
94 357 97 376 3 13 16 83 31 154 14 72 28 148 31 170 3 22 8 50 10 62 3 12 7
41 10 65 3 24 7 59 10 78 17 131 32 298 41 448 5 86 4 490 -1 562 -2 30 -6 96
-10 145 -3 50 -7 104 -9 120 -2 17 -7 57 -10 90 -11 100 -16 136 -32 230 -9
49 -17 91 -19 93 -2 2 -48 -4 -102 -13 -54 -10 -112 -19 -130 -21 -18 -3 -81
-16 -140 -30 -162 -37 -199 -45 -210 -46 -5 0 -24 -6 -43 -13 -19 -8 -71 -23
-115 -35 -159 -43 -509 -170 -695 -253 -660 -294 -1264 -720 -1760 -1243 -186
-196 -428 -500 -578 -725 l-64 -95 -71 12 c-101 17 -148 23 -179 24 -26 0 -26
1 -21 58 12 134 6 557 -12 762 -10 120 -24 254 -30 300 -3 19 -8 53 -10 75 -3
22 -7 51 -10 65 -3 14 -7 43 -10 65 -2 22 -7 51 -10 65 -11 54 -14 77 -20 114
-3 22 -12 71 -21 110 -8 39 -19 92 -24 119 -8 41 -61 267 -76 322 -65 245
-208 678 -278 840 -8 17 -35 82 -61 145 -65 155 -124 280 -133 280 -4 -1 -58
-37 -121 -81z m-2868 -6156 c6 -44 1 -268 -6 -299 -3 -12 -8 -37 -11 -55 -28
-180 -165 -399 -324 -519 -60 -45 -282 -167 -282 -154 0 2 -13 -2 -28 -10 -23
-12 -62 -24 -172 -52 -8 -2 -46 -11 -85 -19 -139 -30 -220 -90 -430 -320 l-36
-40 5 55 c39 390 227 789 491 1043 180 174 471 327 706 372 12 2 28 6 37 9 9
3 37 8 62 11 25 4 47 9 49 11 12 11 19 0 24 -33z"/>
<path d="M26282 30003 c56 -61 246 -334 360 -518 137 -221 323 -572 435 -820
198 -438 402 -1045 488 -1455 2 -8 13 -59 25 -114 27 -124 29 -132 36 -186 3
-25 8 -48 10 -51 3 -5 25 -144 49 -304 8 -47 15 -106 20 -165 3 -30 7 -64 10
-75 2 -11 7 -63 10 -115 4 -52 8 -102 10 -110 25 -97 25 -1026 0 -1221 -1 -14
-6 -61 -9 -105 -4 -43 -8 -90 -10 -104 -3 -14 -7 -56 -11 -93 -3 -37 -8 -76
-10 -85 -1 -9 -6 -42 -9 -73 -4 -31 -8 -65 -10 -75 -2 -11 -7 -41 -10 -69 -4
-27 -11 -72 -16 -100 -5 -27 -12 -66 -15 -85 -23 -153 -28 -180 -31 -177 -2 2
-18 53 -35 113 -67 243 -193 601 -269 769 -5 11 -31 70 -58 130 -64 143 -143
304 -151 309 -3 2 -6 -55 -7 -127 -1 -129 -12 -453 -19 -532 -2 -22 -6 -87
-10 -145 -3 -58 -8 -121 -10 -140 -2 -19 -6 -74 -10 -122 -3 -47 -8 -97 -10
-110 -2 -12 -6 -57 -10 -98 -3 -41 -8 -88 -10 -105 -2 -16 -6 -59 -10 -95 -3
-36 -8 -76 -10 -90 -2 -14 -6 -50 -10 -80 -4 -30 -8 -66 -10 -80 -2 -14 -7
-49 -10 -79 -4 -30 -8 -61 -10 -70 -1 -9 -6 -41 -10 -71 -4 -30 -9 -64 -11
-75 -2 -10 -6 -37 -9 -60 -10 -62 -54 -337 -60 -365 -3 -14 -10 -52 -16 -85
-18 -106 -97 -498 -114 -570 -9 -38 -19 -79 -21 -90 -5 -28 -97 -391 -129
-510 -97 -365 -264 -865 -403 -1210 -74 -185 -114 -278 -199 -465 -42 -91
-228 -461 -267 -528 -20 -35 -36 -65 -36 -67 0 -2 -43 -77 -97 -167 -101 -172
-221 -354 -348 -533 -42 -59 -74 -109 -72 -111 2 -2 65 41 140 95 451 329 880
718 1328 1206 160 175 497 592 599 742 8 11 45 63 81 115 516 729 925 1565
1165 2383 30 100 108 392 119 445 72 331 126 641 150 870 3 30 8 66 10 80 2
14 7 61 10 105 4 44 8 94 10 110 10 109 19 375 20 577 0 131 3 238 6 238 7 0
66 -125 99 -210 12 -30 26 -66 32 -80 42 -103 133 -399 153 -500 2 -8 10 -46
19 -85 18 -81 21 -96 41 -225 23 -149 24 -160 31 -243 6 -68 14 -91 20 -54 1
7 5 30 8 52 4 22 9 63 12 90 3 28 7 57 9 65 2 8 7 51 11 95 3 44 8 91 9 105
25 206 25 867 1 1100 -3 19 -7 71 -11 115 -3 44 -8 95 -11 113 -6 49 -12 89
-24 181 -11 78 -61 362 -75 421 -3 14 -8 36 -11 50 -13 68 -70 288 -101 390
-50 165 -120 373 -143 425 -5 11 -28 67 -51 125 -23 57 -45 111 -50 120 -5 8
-22 47 -40 85 -165 370 -477 863 -730 1150 -14 17 -50 57 -79 90 -152 173
-365 379 -541 525 -68 56 -134 110 -145 120 -35 29 -293 212 -369 262 -211
138 -561 338 -592 338 -4 0 5 -12 19 -27z"/>
<path d="M10398 21938 c-35 -29 -65 -55 -68 -59 -3 -4 -25 -23 -50 -44 -235
-195 -637 -618 -842 -885 -14 -19 -53 -69 -85 -110 -287 -366 -590 -821 -786
-1180 -16 -30 -36 -66 -44 -78 -36 -58 -211 -409 -289 -579 -86 -188 -235
-548 -273 -659 -11 -32 -44 -131 -74 -219 -80 -232 -193 -617 -213 -723 -3
-13 -18 -81 -35 -150 -37 -153 -75 -341 -103 -497 -34 -195 -60 -368 -72 -470
-3 -33 -8 -68 -9 -77 -2 -9 -6 -48 -10 -85 -3 -37 -8 -84 -10 -103 -2 -19 -7
-66 -10 -105 -3 -38 -8 -88 -10 -110 -27 -280 -27 -1086 0 -1375 2 -19 7 -71
10 -115 4 -44 8 -91 10 -105 1 -14 6 -59 10 -100 4 -41 9 -77 10 -80 2 -3 6
-37 10 -75 3 -39 8 -80 10 -92 3 -12 7 -41 10 -65 3 -24 7 -50 10 -58 2 -8 7
-35 10 -60 4 -25 15 -97 26 -160 11 -63 22 -127 24 -143 2 -15 6 -31 9 -35 2
-4 7 -28 11 -52 14 -99 113 -514 175 -730 45 -160 156 -514 171 -545 5 -11 33
-87 63 -170 30 -82 66 -177 79 -210 90 -220 124 -299 192 -450 354 -783 777
-1503 1284 -2185 108 -145 323 -418 382 -485 14 -16 61 -70 104 -120 328 -382
868 -896 1245 -1184 147 -112 321 -242 380 -282 36 -24 67 -46 70 -49 14 -15
354 -233 470 -301 475 -280 910 -488 1410 -674 425 -158 922 -299 1370 -389
119 -24 148 -29 223 -41 17 -3 59 -11 92 -17 33 -6 67 -12 75 -13 8 -1 33 -5
55 -8 22 -4 60 -9 85 -12 25 -3 56 -8 70 -10 38 -7 102 -15 156 -21 27 -2 66
-7 86 -9 112 -14 228 -26 296 -31 42 -2 95 -7 117 -9 216 -23 1173 -24 1395
-1 19 2 71 7 115 10 112 9 193 16 240 21 22 3 72 7 110 10 39 3 81 8 95 10 14
3 51 7 83 10 32 4 66 8 75 10 9 1 46 6 82 10 36 4 73 9 84 11 10 2 44 6 75 10
84 9 508 81 651 110 69 14 136 28 150 30 14 2 54 11 90 19 36 8 80 17 99 20
19 3 37 8 41 10 4 2 20 7 36 9 21 4 434 107 604 151 116 29 511 151 745 230
362 121 888 322 1176 449 145 64 317 140 409 182 149 67 768 379 935 471 357
197 665 378 1023 602 241 151 764 507 1007 686 61 44 144 105 185 135 41 30
77 57 80 60 3 3 55 44 115 90 127 97 420 329 515 408 284 236 463 389 624 533
125 112 307 279 376 345 41 39 102 97 135 128 71 68 360 310 495 416 52 41 97
77 100 80 13 15 393 299 555 415 167 120 579 398 726 490 497 311 860 509
1289 703 431 195 931 368 1275 441 22 5 72 16 110 24 39 9 82 18 95 20 196 36
200 37 323 53 23 3 56 7 72 9 142 20 644 27 800 12 149 -15 170 -18 225 -27
30 -5 71 -11 90 -14 449 -70 913 -251 1315 -514 299 -196 501 -376 735 -658
41 -49 81 -95 89 -103 67 -72 347 -469 493 -701 75 -119 278 -466 278 -475 0
-2 16 -32 36 -67 38 -65 314 -612 314 -621 0 -2 22 -51 49 -108 27 -57 72
-158 101 -224 28 -66 62 -144 76 -173 13 -29 24 -55 24 -58 0 -3 7 -21 15 -40
8 -19 21 -49 29 -66 28 -63 150 -375 231 -591 81 -215 83 -218 87 -170 10 113
-1 706 -17 948 -14 210 -17 247 -20 263 -2 10 -6 58 -10 108 -3 49 -8 96 -10
104 -3 8 -7 44 -10 80 -3 36 -8 76 -10 90 -2 14 -7 45 -10 70 -9 77 -16 124
-20 140 -2 8 -7 35 -10 60 -3 25 -8 56 -10 70 -3 14 -7 41 -10 60 -3 19 -10
60 -15 90 -6 30 -13 69 -15 85 -5 24 -37 183 -50 245 -87 400 -195 799 -300
1105 -7 22 -32 94 -55 160 -22 66 -45 129 -49 140 -5 11 -41 103 -81 205 -226
579 -618 1318 -988 1865 -347 514 -648 887 -1041 1289 -75 76 -141 143 -147
150 -6 6 -62 58 -124 116 -62 58 -118 110 -124 115 -32 30 -241 209 -311 266
-217 178 -683 510 -847 604 -9 6 -73 44 -140 85 -286 173 -708 383 -1048 520
-191 78 -602 225 -657 236 -12 2 -34 9 -48 14 -99 38 -618 169 -850 215 -104
20 -193 37 -215 39 -14 2 -38 6 -55 9 -16 4 -48 9 -70 12 -22 3 -65 10 -95 15
-30 5 -73 12 -95 14 -22 3 -56 8 -75 10 -67 10 -195 26 -245 31 -27 3 -75 7
-105 10 -117 12 -138 14 -245 21 -60 3 -123 8 -140 9 -59 6 -533 19 -690 18
-174 0 -623 -11 -695 -17 -25 -3 -92 -7 -150 -11 -58 -4 -121 -8 -140 -10 -19
-2 -73 -6 -120 -10 -47 -3 -96 -8 -110 -10 -14 -2 -52 -6 -85 -10 -33 -3 -71
-8 -85 -10 -14 -2 -56 -6 -94 -10 -38 -3 -72 -8 -75 -9 -3 -2 -40 -7 -81 -11
-100 -9 -182 -19 -238 -30 -10 -1 -39 -6 -67 -9 -27 -4 -61 -9 -75 -11 -14 -2
-90 -13 -170 -25 -80 -11 -165 -25 -190 -30 -25 -5 -61 -12 -80 -15 -32 -5
-263 -48 -320 -60 -14 -3 -43 -8 -65 -10 -22 -3 -48 -8 -57 -11 -9 -3 -25 -7
-35 -9 -242 -50 -497 -108 -688 -156 -132 -34 -248 -63 -257 -65 -10 -2 -26
-6 -35 -8 -124 -30 -527 -151 -853 -257 -157 -51 -287 -93 -290 -94 -3 -1 -12
-5 -20 -8 -16 -7 -50 -19 -255 -92 -71 -26 -173 -63 -225 -82 -52 -20 -122
-46 -155 -58 -72 -26 -337 -131 -382 -151 -18 -8 -50 -21 -70 -28 -52 -18
-344 -141 -421 -177 -35 -16 -65 -29 -68 -29 -3 0 -24 -8 -47 -19 -23 -10 -91
-40 -152 -66 -127 -55 -115 -50 -435 -193 -135 -60 -279 -125 -320 -145 -41
-19 -131 -61 -200 -92 -153 -71 -249 -116 -405 -190 -177 -84 -270 -128 -360
-170 -139 -65 -236 -111 -370 -175 -71 -34 -150 -71 -175 -82 -25 -11 -101
-47 -170 -80 -69 -33 -163 -78 -210 -100 -47 -22 -116 -55 -155 -73 -238 -112
-893 -401 -1060 -466 -55 -22 -113 -46 -130 -53 -16 -7 -68 -28 -115 -46 -47
-17 -94 -36 -105 -40 -220 -90 -520 -196 -815 -287 -159 -49 -539 -154 -610
-168 -8 -2 -88 -19 -177 -39 -89 -20 -179 -38 -200 -41 -21 -3 -74 -12 -118
-20 -99 -18 -354 -52 -455 -61 -41 -3 -83 -8 -93 -10 -10 -2 -62 -6 -115 -9
-53 -4 -122 -8 -152 -10 -70 -5 -508 -5 -575 0 -27 1 -101 6 -163 10 -63 3
-123 8 -135 11 -12 2 -53 7 -90 10 -37 3 -76 7 -85 9 -10 2 -45 6 -77 10 -33
4 -69 9 -80 11 -11 2 -60 11 -110 19 -249 41 -486 97 -765 181 -63 19 -124 39
-135 44 -11 5 -54 20 -95 34 -310 103 -588 246 -802 411 -14 11 -41 31 -59 45
-183 139 -390 360 -514 550 -98 150 -143 234 -240 445 -38 81 -104 274 -145
420 -18 66 -67 291 -75 348 -3 20 -7 54 -10 75 -3 20 -8 51 -10 67 -2 17 -6
50 -10 75 -34 246 -39 852 -9 1155 8 79 14 138 19 170 2 17 7 55 10 85 4 30 8
64 9 75 2 11 6 45 10 75 4 30 9 62 11 70 2 8 7 35 10 60 4 25 15 90 26 144 10
55 17 101 15 103 -2 2 -12 -20 -24 -49 -11 -29 -38 -93 -60 -143 -78 -179
-160 -427 -222 -675 -38 -152 -86 -383 -96 -464 -2 -23 -7 -52 -9 -66 -44
-273 -60 -768 -30 -994 2 -17 6 -58 10 -91 3 -33 8 -67 10 -75 2 -8 7 -37 10
-65 18 -145 116 -514 169 -640 61 -142 129 -286 174 -365 48 -83 131 -216 154
-245 5 -5 25 -32 46 -60 291 -391 736 -740 1202 -942 422 -184 802 -302 1273
-398 94 -19 204 -39 242 -45 39 -5 81 -12 95 -14 30 -6 252 -33 330 -41 187
-19 392 -28 630 -29 337 0 615 17 895 54 39 5 93 13 120 16 28 3 59 8 70 10
10 2 37 6 60 9 22 4 54 8 70 11 17 3 44 7 60 10 17 2 54 9 83 15 29 6 66 12
83 14 17 3 38 7 48 9 9 3 30 8 46 10 270 46 806 186 1155 303 58 19 110 36
115 37 6 2 17 6 25 9 8 4 67 24 130 46 316 108 555 198 895 336 195 79 609
253 680 285 22 10 103 46 180 80 77 34 158 70 180 80 144 67 237 110 240 110
2 0 64 27 137 61 236 109 252 116 313 144 143 66 501 227 510 229 6 2 42 18
80 36 39 17 95 43 125 57 101 46 663 294 724 320 34 13 75 31 91 38 54 25 484
204 624 261 75 30 145 59 156 64 11 5 72 29 135 53 63 24 124 47 135 52 11 4
25 9 30 10 6 2 51 19 100 38 117 46 450 168 545 199 25 9 173 58 330 111 277
93 536 172 770 237 63 17 135 38 160 45 62 19 279 76 310 81 14 3 34 8 45 11
11 4 25 8 30 9 6 1 75 18 155 38 129 31 288 68 360 82 14 3 66 14 115 24 50
11 106 22 125 25 19 3 53 10 75 15 42 9 185 36 245 45 19 3 42 8 50 10 8 2 33
6 55 10 22 3 47 7 55 10 8 2 33 6 55 10 22 3 69 10 105 16 74 12 83 14 165 24
33 4 67 9 76 10 17 3 194 25 239 30 45 5 134 15 170 21 19 2 60 7 90 9 57 5
132 12 210 20 25 2 86 7 135 11 50 3 108 7 130 9 361 27 1320 27 1595 0 19 -2
69 -6 110 -9 41 -4 89 -8 105 -10 17 -3 59 -7 95 -11 79 -7 146 -15 180 -21
14 -2 50 -6 80 -10 54 -6 480 -77 530 -89 14 -3 39 -8 55 -11 53 -9 207 -44
290 -65 44 -12 88 -22 97 -24 20 -4 161 -43 203 -56 418 -129 661 -218 990
-364 158 -70 470 -228 620 -314 103 -59 133 -77 260 -155 86 -53 350 -231 404
-273 9 -7 75 -56 146 -109 107 -80 315 -246 361 -289 6 -5 46 -41 89 -80 143
-127 211 -192 295 -281 47 -50 39 -47 -20 6 -9 8 -31 26 -49 40 -19 14 -42 32
-51 40 -42 35 -60 49 -147 112 -471 345 -1027 643 -1543 828 -264 95 -662 205
-885 244 -16 3 -55 10 -85 16 -77 14 -94 17 -183 30 -43 6 -88 13 -100 15 -65
10 -135 18 -262 30 -38 4 -83 9 -100 10 -175 19 -711 25 -965 11 -215 -12
-215 -12 -415 -32 -86 -8 -313 -38 -375 -49 -14 -2 -43 -7 -65 -10 -52 -7 -78
-12 -210 -35 -60 -10 -126 -22 -145 -25 -19 -3 -84 -17 -145 -31 -60 -13 -119
-26 -130 -29 -11 -2 -85 -20 -165 -40 -80 -20 -152 -38 -160 -40 -44 -10 -328
-90 -410 -116 -222 -71 -575 -190 -645 -218 -11 -5 -103 -41 -205 -81 -102
-40 -198 -78 -215 -85 -16 -8 -91 -39 -165 -70 -261 -110 -856 -397 -1100
-531 -96 -52 -281 -155 -315 -174 -16 -10 -64 -37 -105 -60 -60 -35 -274 -163
-431 -259 -15 -9 -60 -36 -100 -61 -41 -24 -78 -48 -84 -53 -27 -21 -704 -465
-865 -567 -218 -137 -658 -400 -855 -510 -116 -65 -220 -122 -305 -167 -52
-28 -135 -72 -185 -98 -121 -64 -580 -294 -680 -340 -44 -21 -118 -55 -165
-77 -151 -71 -419 -187 -670 -289 -135 -55 -254 -104 -265 -109 -11 -5 -54
-21 -95 -35 -41 -15 -88 -33 -105 -40 -50 -21 -310 -115 -319 -115 -4 0 -22
-6 -39 -14 -32 -14 -309 -106 -512 -170 -108 -34 -240 -73 -420 -123 -121 -33
-473 -122 -510 -129 -16 -3 -55 -11 -85 -18 -30 -8 -71 -17 -90 -20 -19 -3
-44 -8 -55 -10 -173 -35 -292 -57 -393 -72 -124 -18 -133 -25 -49 -39 18 -3
48 -10 67 -15 19 -5 52 -11 74 -14 21 -4 41 -8 45 -10 3 -2 30 -7 60 -11 30
-4 61 -8 70 -10 9 -1 41 -6 71 -11 30 -4 57 -8 60 -9 3 -1 37 -5 75 -9 39 -5
77 -9 85 -11 8 -1 53 -6 100 -10 47 -3 101 -8 120 -10 260 -25 1030 -25 1225
0 17 2 73 7 125 10 52 3 111 8 130 10 19 2 60 7 90 10 30 3 107 12 170 20 63
8 137 17 164 20 44 5 356 56 431 70 80 16 370 76 428 89 36 8 76 17 89 20 176
32 852 227 1153 332 149 53 416 150 460 169 17 7 46 18 65 26 64 23 484 200
558 235 41 19 76 34 78 34 16 0 636 305 789 388 50 27 120 65 156 85 37 20
120 66 185 103 66 37 144 81 174 97 49 27 361 215 436 263 29 18 29 18 14 -1
-8 -11 -18 -22 -21 -25 -3 -3 -41 -45 -84 -95 -307 -349 -744 -782 -1075
-1065 -47 -40 -99 -85 -116 -100 -128 -114 -549 -438 -804 -617 -217 -153
-706 -463 -866 -549 -39 -21 -154 -85 -192 -106 -181 -102 -576 -298 -772
-383 -41 -18 -95 -42 -120 -53 -89 -41 -329 -142 -337 -142 -5 0 -42 -14 -83
-31 -41 -16 -84 -34 -95 -38 -25 -10 -118 -45 -165 -61 -19 -7 -44 -16 -55
-21 -30 -13 -453 -152 -590 -194 -366 -111 -916 -246 -1255 -309 -14 -3 -50
-10 -80 -16 -30 -6 -70 -13 -89 -16 -18 -3 -43 -8 -55 -10 -11 -2 -80 -13
-151 -24 -72 -11 -139 -22 -150 -24 -48 -9 -146 -23 -215 -31 -25 -3 -56 -7
-70 -9 -14 -2 -70 -9 -125 -15 -55 -6 -113 -14 -130 -16 -16 -2 -57 -7 -90
-10 -33 -3 -71 -8 -85 -10 -14 -3 -61 -7 -105 -10 -44 -3 -98 -8 -120 -10 -22
-2 -89 -7 -150 -10 -60 -4 -121 -8 -135 -11 -163 -26 -1383 -26 -1725 1 -27 2
-90 6 -140 10 -49 3 -108 8 -130 10 -22 2 -76 7 -120 10 -44 3 -93 8 -110 10
-16 2 -57 6 -90 10 -33 3 -76 8 -95 10 -19 3 -55 7 -80 10 -125 15 -221 29
-379 56 -96 16 -176 27 -178 25 -2 -2 8 -11 24 -19 15 -8 82 -45 148 -81 191
-106 446 -228 695 -333 323 -137 737 -284 1060 -377 53 -16 262 -74 305 -85
65 -18 417 -101 447 -106 18 -3 49 -10 68 -15 19 -5 51 -12 70 -15 19 -3 42
-8 51 -11 9 -2 32 -7 50 -9 19 -2 81 -13 139 -24 58 -11 121 -22 140 -25 19
-3 46 -8 60 -11 13 -3 40 -7 60 -10 93 -13 189 -26 225 -31 22 -2 56 -6 75 -9
19 -2 78 -9 130 -15 52 -6 110 -13 129 -16 18 -2 61 -7 95 -9 33 -3 79 -8 101
-10 36 -4 75 -7 275 -20 348 -24 1171 -24 1390 0 19 2 82 6 140 9 58 4 125 9
150 12 77 8 132 13 210 20 41 3 89 8 105 10 17 2 53 6 80 9 28 3 95 12 150 20
55 8 121 17 146 20 26 3 58 8 70 10 13 3 44 8 69 11 25 3 56 7 70 10 14 2 54
8 90 14 36 5 108 18 160 29 52 10 112 22 132 25 21 3 90 17 153 31 64 14 120
25 123 25 4 -1 -22 -13 -58 -29 -36 -15 -85 -37 -110 -48 -25 -11 -63 -27 -85
-35 -22 -9 -84 -35 -137 -57 -558 -232 -1372 -511 -1898 -649 -287 -76 -513
-132 -610 -152 -58 -12 -112 -24 -120 -25 -25 -6 -263 -54 -295 -60 -88 -16
-265 -46 -295 -51 -19 -3 -73 -11 -120 -19 -47 -7 -110 -17 -140 -20 -30 -4
-64 -9 -75 -11 -11 -2 -45 -6 -75 -9 -30 -3 -68 -8 -85 -10 -16 -2 -57 -7 -90
-10 -33 -3 -71 -8 -85 -10 -23 -4 -78 -8 -245 -20 -38 -3 -99 -7 -135 -10
-337 -25 -990 -25 -1240 0 -25 3 -74 7 -110 10 -187 16 -224 20 -395 41 -66 8
-127 17 -135 19 -8 2 -37 6 -65 10 -148 18 -455 78 -667 131 -79 19 -152 37
-163 39 -11 3 -51 14 -90 26 -38 11 -74 21 -80 23 -71 19 -224 65 -285 86 -95
32 -208 73 -225 80 -11 4 -76 29 -145 55 -69 26 -143 56 -166 66 -22 10 -63
27 -90 37 -62 25 -328 152 -459 220 -304 157 -638 358 -880 530 -75 54 -309
226 -315 232 -3 3 -25 21 -50 40 -44 34 -255 205 -276 225 -6 5 -44 39 -84 75
-41 36 -99 87 -129 115 -83 73 -484 477 -572 575 -90 99 -209 237 -259 299
-19 23 -43 53 -54 64 -72 84 -305 439 -400 612 -16 28 -32 55 -36 60 -24 30
-214 384 -320 595 -217 431 -364 775 -515 1206 -31 88 -58 168 -60 178 -3 11
-13 47 -24 80 -85 268 -193 695 -236 941 -8 44 -17 91 -20 105 -3 14 -8 45
-11 70 -3 25 -8 47 -9 50 -2 3 -6 26 -9 50 -7 51 -17 117 -21 140 -1 8 -6 40
-10 70 -4 30 -9 62 -10 70 -1 8 -6 46 -10 83 -3 37 -8 76 -10 85 -1 10 -6 60
-10 112 -4 52 -8 111 -10 130 -26 271 -26 1117 0 1290 2 14 6 61 10 105 3 44
8 91 10 105 2 14 6 57 10 95 3 39 8 81 10 95 2 14 11 75 20 135 15 113 20 140
35 235 11 67 17 100 31 165 5 28 12 66 15 85 3 19 7 41 10 49 2 8 16 66 30
130 30 137 29 134 43 191 7 25 14 56 17 70 2 14 8 34 11 45 4 11 8 25 9 30 5
26 64 245 77 285 7 25 14 47 14 50 1 3 7 25 14 50 7 25 13 50 15 56 4 22 87
285 126 399 22 66 41 125 43 130 1 6 5 17 8 25 3 8 13 36 21 61 23 72 164 446
186 494 11 24 20 50 20 57 0 8 4 18 9 24 4 5 19 38 33 74 33 84 192 446 253
575 25 55 54 116 62 135 81 182 391 782 556 1075 50 88 95 169 102 180 6 11
26 46 45 78 19 33 46 78 59 100 51 89 263 428 374 600 32 48 55 87 53 87 -3 0
-33 -23 -68 -52z"/>
</g>
</svg>
